%TF.GenerationSoftware,KiCad,Pcbnew,9.0.3*%
%TF.CreationDate,2025-12-22T19:21:40+07:00*%
%TF.ProjectId,BSPD v4 Rev 5,42535044-2076-4342-9052-657620352e6b,rev?*%
%TF.SameCoordinates,Original*%
%TF.FileFunction,Soldermask,Top*%
%TF.FilePolarity,Negative*%
%FSLAX46Y46*%
G04 Gerber Fmt 4.6, Leading zero omitted, Abs format (unit mm)*
G04 Created by KiCad (PCBNEW 9.0.3) date 2025-12-22 19:21:40*
%MOMM*%
%LPD*%
G01*
G04 APERTURE LIST*
G04 Aperture macros list*
%AMRoundRect*
0 Rectangle with rounded corners*
0 $1 Rounding radius*
0 $2 $3 $4 $5 $6 $7 $8 $9 X,Y pos of 4 corners*
0 Add a 4 corners polygon primitive as box body*
4,1,4,$2,$3,$4,$5,$6,$7,$8,$9,$2,$3,0*
0 Add four circle primitives for the rounded corners*
1,1,$1+$1,$2,$3*
1,1,$1+$1,$4,$5*
1,1,$1+$1,$6,$7*
1,1,$1+$1,$8,$9*
0 Add four rect primitives between the rounded corners*
20,1,$1+$1,$2,$3,$4,$5,0*
20,1,$1+$1,$4,$5,$6,$7,0*
20,1,$1+$1,$6,$7,$8,$9,0*
20,1,$1+$1,$8,$9,$2,$3,0*%
G04 Aperture macros list end*
%ADD10RoundRect,0.250000X0.350000X0.450000X-0.350000X0.450000X-0.350000X-0.450000X0.350000X-0.450000X0*%
%ADD11RoundRect,0.250000X-0.325000X-0.450000X0.325000X-0.450000X0.325000X0.450000X-0.325000X0.450000X0*%
%ADD12RoundRect,0.250000X0.450000X-0.350000X0.450000X0.350000X-0.450000X0.350000X-0.450000X-0.350000X0*%
%ADD13C,0.800000*%
%ADD14C,6.400000*%
%ADD15RoundRect,0.250000X-0.350000X-0.450000X0.350000X-0.450000X0.350000X0.450000X-0.350000X0.450000X0*%
%ADD16RoundRect,0.150000X0.150000X-0.825000X0.150000X0.825000X-0.150000X0.825000X-0.150000X-0.825000X0*%
%ADD17RoundRect,0.258000X-1.427000X-0.602000X1.427000X-0.602000X1.427000X0.602000X-1.427000X0.602000X0*%
%ADD18RoundRect,0.250000X-0.450000X0.350000X-0.450000X-0.350000X0.450000X-0.350000X0.450000X0.350000X0*%
%ADD19C,1.700000*%
%ADD20RoundRect,0.250000X0.475000X-0.337500X0.475000X0.337500X-0.475000X0.337500X-0.475000X-0.337500X0*%
%ADD21C,5.000000*%
%ADD22RoundRect,0.150000X0.960000X-0.950000X0.960000X0.950000X-0.960000X0.950000X-0.960000X-0.950000X0*%
%ADD23C,2.200000*%
%ADD24C,3.000000*%
%ADD25RoundRect,0.200000X-0.750000X-0.200000X0.750000X-0.200000X0.750000X0.200000X-0.750000X0.200000X0*%
%ADD26RoundRect,0.250000X-0.337500X-0.475000X0.337500X-0.475000X0.337500X0.475000X-0.337500X0.475000X0*%
%ADD27RoundRect,0.150000X-0.150000X0.825000X-0.150000X-0.825000X0.150000X-0.825000X0.150000X0.825000X0*%
%ADD28RoundRect,0.250000X-0.475000X0.337500X-0.475000X-0.337500X0.475000X-0.337500X0.475000X0.337500X0*%
%ADD29RoundRect,0.250000X-0.850000X-0.350000X0.850000X-0.350000X0.850000X0.350000X-0.850000X0.350000X0*%
%ADD30RoundRect,0.249997X-2.950003X-2.650003X2.950003X-2.650003X2.950003X2.650003X-2.950003X2.650003X0*%
%ADD31R,1.200000X1.200000*%
G04 APERTURE END LIST*
D10*
%TO.C,R52*%
X219525000Y-112030000D03*
X217525000Y-112030000D03*
%TD*%
D11*
%TO.C,D3*%
X213475000Y-102050000D03*
X215525000Y-102050000D03*
%TD*%
D12*
%TO.C,R78*%
X184750000Y-127987500D03*
X184750000Y-125987500D03*
%TD*%
D11*
%TO.C,D1*%
X213750000Y-84050000D03*
X215800000Y-84050000D03*
%TD*%
D13*
%TO.C,H4*%
X234950000Y-141000000D03*
X235652944Y-139302944D03*
X235652944Y-142697056D03*
X237350000Y-138600000D03*
D14*
X237350000Y-141000000D03*
D13*
X237350000Y-143400000D03*
X239047056Y-139302944D03*
X239047056Y-142697056D03*
X239750000Y-141000000D03*
%TD*%
D15*
%TO.C,R11*%
X204000000Y-127310000D03*
X206000000Y-127310000D03*
%TD*%
D16*
%TO.C,U20*%
X191940000Y-108762500D03*
X193210000Y-108762500D03*
X194480000Y-108762500D03*
X195750000Y-108762500D03*
X197020000Y-108762500D03*
X198290000Y-108762500D03*
X199560000Y-108762500D03*
X199560000Y-103812500D03*
X198290000Y-103812500D03*
X197020000Y-103812500D03*
X195750000Y-103812500D03*
X194480000Y-103812500D03*
X193210000Y-103812500D03*
X191940000Y-103812500D03*
%TD*%
D17*
%TO.C,TP11*%
X221333333Y-76500000D03*
%TD*%
D18*
%TO.C,R74*%
X190500000Y-114450000D03*
X190500000Y-116450000D03*
%TD*%
D15*
%TO.C,R4*%
X207750000Y-90305000D03*
X209750000Y-90305000D03*
%TD*%
D19*
%TO.C,RV2*%
X204500000Y-93805000D03*
X207000000Y-93805000D03*
X209500000Y-93805000D03*
%TD*%
D11*
%TO.C,D14*%
X208975000Y-136750000D03*
X211025000Y-136750000D03*
%TD*%
D15*
%TO.C,R6*%
X207750000Y-99300000D03*
X209750000Y-99300000D03*
%TD*%
D20*
%TO.C,C10*%
X171500000Y-87025000D03*
X171500000Y-84950000D03*
%TD*%
D21*
%TO.C,J1*%
X145300000Y-115140000D03*
X145300000Y-97360000D03*
D22*
X158000000Y-95770000D03*
D23*
X158000000Y-99960000D03*
X158000000Y-104150000D03*
X158000000Y-108350000D03*
X158000000Y-112540000D03*
X158000000Y-116730000D03*
X151650000Y-116730000D03*
X151650000Y-112540000D03*
X151650000Y-108350000D03*
X151650000Y-104150000D03*
X151650000Y-99960000D03*
X151650000Y-95770000D03*
%TD*%
D20*
%TO.C,C14*%
X188345000Y-116525000D03*
X188345000Y-114450000D03*
%TD*%
D24*
%TO.C,U23*%
X174200000Y-133500000D03*
X174200000Y-141500000D03*
X180500000Y-141500000D03*
X185150000Y-141500000D03*
X185150000Y-133500000D03*
X180500000Y-133500000D03*
%TD*%
D18*
%TO.C,R72*%
X189750000Y-107250000D03*
X189750000Y-109250000D03*
%TD*%
D16*
%TO.C,U17*%
X181690000Y-94212500D03*
X182960000Y-94212500D03*
X184230000Y-94212500D03*
X185500000Y-94212500D03*
X186770000Y-94212500D03*
X188040000Y-94212500D03*
X189310000Y-94212500D03*
X189310000Y-89262500D03*
X188040000Y-89262500D03*
X186770000Y-89262500D03*
X185500000Y-89262500D03*
X184230000Y-89262500D03*
X182960000Y-89262500D03*
X181690000Y-89262500D03*
%TD*%
D15*
%TO.C,R48*%
X231700000Y-126300000D03*
X233700000Y-126300000D03*
%TD*%
D12*
%TO.C,R82*%
X175055000Y-128025000D03*
X175055000Y-126025000D03*
%TD*%
D15*
%TO.C,R16*%
X227750000Y-90250000D03*
X229750000Y-90250000D03*
%TD*%
D19*
%TO.C,RV3*%
X204500000Y-102800000D03*
X207000000Y-102800000D03*
X209500000Y-102800000D03*
%TD*%
D15*
%TO.C,R7*%
X204000000Y-109280000D03*
X206000000Y-109280000D03*
%TD*%
D17*
%TO.C,TP15*%
X207500000Y-71750000D03*
%TD*%
D15*
%TO.C,R67*%
X165750000Y-103750000D03*
X167750000Y-103750000D03*
%TD*%
D25*
%TO.C,U8*%
X216250000Y-108080000D03*
X216250000Y-109980000D03*
X219250000Y-109030000D03*
%TD*%
D11*
%TO.C,D10*%
X233750000Y-112015000D03*
X235800000Y-112015000D03*
%TD*%
D20*
%TO.C,C18*%
X177055000Y-128062500D03*
X177055000Y-125987500D03*
%TD*%
D15*
%TO.C,R41*%
X212000000Y-117270000D03*
X214000000Y-117270000D03*
%TD*%
D25*
%TO.C,U10*%
X215975000Y-126110000D03*
X215975000Y-128010000D03*
X218975000Y-127060000D03*
%TD*%
D19*
%TO.C,RV7*%
X224500000Y-84750000D03*
X227000000Y-84750000D03*
X229500000Y-84750000D03*
%TD*%
D20*
%TO.C,C1*%
X160500000Y-82062500D03*
X160500000Y-79987500D03*
%TD*%
%TO.C,C19*%
X171695000Y-116600000D03*
X171695000Y-114525000D03*
%TD*%
D10*
%TO.C,R53*%
X219525000Y-121020000D03*
X217525000Y-121020000D03*
%TD*%
D13*
%TO.C,H2*%
X234950000Y-71400000D03*
X235652944Y-69702944D03*
X235652944Y-73097056D03*
X237350000Y-69000000D03*
D14*
X237350000Y-71400000D03*
D13*
X237350000Y-73800000D03*
X239047056Y-69702944D03*
X239047056Y-73097056D03*
X239750000Y-71400000D03*
%TD*%
%TO.C,H3*%
X142600000Y-141000000D03*
X143302944Y-139302944D03*
X143302944Y-142697056D03*
X145000000Y-138600000D03*
D14*
X145000000Y-141000000D03*
D13*
X145000000Y-143400000D03*
X146697056Y-139302944D03*
X146697056Y-142697056D03*
X147400000Y-141000000D03*
%TD*%
D10*
%TO.C,R40*%
X214000000Y-108280000D03*
X212000000Y-108280000D03*
%TD*%
D26*
%TO.C,C15*%
X192000000Y-82500000D03*
X194075000Y-82500000D03*
%TD*%
D17*
%TO.C,TP29*%
X176000000Y-82500000D03*
%TD*%
D16*
%TO.C,U19*%
X191940000Y-94250000D03*
X193210000Y-94250000D03*
X194480000Y-94250000D03*
X195750000Y-94250000D03*
X197020000Y-94250000D03*
X198290000Y-94250000D03*
X199560000Y-94250000D03*
X199560000Y-89300000D03*
X198290000Y-89300000D03*
X197020000Y-89300000D03*
X195750000Y-89300000D03*
X194480000Y-89300000D03*
X193210000Y-89300000D03*
X191940000Y-89300000D03*
%TD*%
D18*
%TO.C,R76*%
X189000000Y-125950000D03*
X189000000Y-127950000D03*
%TD*%
D15*
%TO.C,R66*%
X165750000Y-110750000D03*
X167750000Y-110750000D03*
%TD*%
D17*
%TO.C,TP2*%
X176964286Y-71750000D03*
%TD*%
D26*
%TO.C,C11*%
X192000000Y-73000000D03*
X194075000Y-73000000D03*
%TD*%
D10*
%TO.C,R56*%
X239525000Y-93000000D03*
X237525000Y-93000000D03*
%TD*%
D25*
%TO.C,U16*%
X235950000Y-126150000D03*
X235950000Y-128050000D03*
X238950000Y-127100000D03*
%TD*%
%TO.C,U26*%
X203750000Y-136550000D03*
X203750000Y-138450000D03*
X206750000Y-137500000D03*
%TD*%
D11*
%TO.C,D6*%
X213475000Y-130060000D03*
X215525000Y-130060000D03*
%TD*%
D18*
%TO.C,R32*%
X181370000Y-107225000D03*
X181370000Y-109225000D03*
%TD*%
D10*
%TO.C,R46*%
X234000000Y-108265000D03*
X232000000Y-108265000D03*
%TD*%
D17*
%TO.C,TP3*%
X214416667Y-71750000D03*
%TD*%
D18*
%TO.C,R31*%
X183370000Y-107225000D03*
X183370000Y-109225000D03*
%TD*%
D15*
%TO.C,R8*%
X207750000Y-109280000D03*
X209750000Y-109280000D03*
%TD*%
%TO.C,R42*%
X211725000Y-126310000D03*
X213725000Y-126310000D03*
%TD*%
%TO.C,R15*%
X224000000Y-90250000D03*
X226000000Y-90250000D03*
%TD*%
D11*
%TO.C,D7*%
X233750000Y-84000000D03*
X235800000Y-84000000D03*
%TD*%
D17*
%TO.C,TP4*%
X214416667Y-76500000D03*
%TD*%
D15*
%TO.C,R62*%
X162000000Y-109750000D03*
X164000000Y-109750000D03*
%TD*%
%TO.C,R64*%
X162000000Y-95750000D03*
X164000000Y-95750000D03*
%TD*%
%TO.C,R70*%
X193725000Y-136500000D03*
X195725000Y-136500000D03*
%TD*%
D11*
%TO.C,D8*%
X233750000Y-93000000D03*
X235800000Y-93000000D03*
%TD*%
D17*
%TO.C,TP10*%
X228250000Y-71750000D03*
%TD*%
D11*
%TO.C,D9*%
X233500000Y-101990000D03*
X235550000Y-101990000D03*
%TD*%
D17*
%TO.C,TP7*%
X181857143Y-71750000D03*
%TD*%
%TO.C,TP6*%
X167178571Y-71750000D03*
%TD*%
D10*
%TO.C,R55*%
X239525000Y-84000000D03*
X237525000Y-84000000D03*
%TD*%
D15*
%TO.C,R61*%
X162000000Y-116750000D03*
X164000000Y-116750000D03*
%TD*%
D18*
%TO.C,R28*%
X166000000Y-87750000D03*
X166000000Y-89750000D03*
%TD*%
D17*
%TO.C,TP30*%
X186250000Y-82500000D03*
%TD*%
D15*
%TO.C,R63*%
X162000000Y-102750000D03*
X164000000Y-102750000D03*
%TD*%
D26*
%TO.C,C8*%
X165712500Y-94750000D03*
X167787500Y-94750000D03*
%TD*%
D15*
%TO.C,R18*%
X227750000Y-99240000D03*
X229750000Y-99240000D03*
%TD*%
D25*
%TO.C,U6*%
X216250000Y-89105000D03*
X216250000Y-91005000D03*
X219250000Y-90055000D03*
%TD*%
D18*
%TO.C,R26*%
X164500000Y-80000000D03*
X164500000Y-82000000D03*
%TD*%
D11*
%TO.C,D15*%
X226700000Y-136750000D03*
X228750000Y-136750000D03*
%TD*%
D10*
%TO.C,R51*%
X219250000Y-102050000D03*
X217250000Y-102050000D03*
%TD*%
D18*
%TO.C,R29*%
X177930000Y-99475000D03*
X177930000Y-101475000D03*
%TD*%
D25*
%TO.C,U15*%
X236250000Y-117050000D03*
X236250000Y-118950000D03*
X239250000Y-118000000D03*
%TD*%
D15*
%TO.C,R38*%
X212000000Y-89305000D03*
X214000000Y-89305000D03*
%TD*%
D12*
%TO.C,R33*%
X157440000Y-132500000D03*
X157440000Y-130500000D03*
%TD*%
D15*
%TO.C,R19*%
X224000000Y-109265000D03*
X226000000Y-109265000D03*
%TD*%
D10*
%TO.C,R58*%
X239525000Y-112015000D03*
X237525000Y-112015000D03*
%TD*%
D17*
%TO.C,TP1*%
X157392857Y-71750000D03*
%TD*%
D27*
%TO.C,U2*%
X179120000Y-103775000D03*
X177850000Y-103775000D03*
X176580000Y-103775000D03*
X175310000Y-103775000D03*
X174040000Y-103775000D03*
X172770000Y-103775000D03*
X171500000Y-103775000D03*
X171500000Y-108725000D03*
X172770000Y-108725000D03*
X174040000Y-108725000D03*
X175310000Y-108725000D03*
X176580000Y-108725000D03*
X177850000Y-108725000D03*
X179120000Y-108725000D03*
%TD*%
D28*
%TO.C,C13*%
X186845000Y-125950000D03*
X186845000Y-128025000D03*
%TD*%
D15*
%TO.C,R10*%
X207725000Y-118270000D03*
X209725000Y-118270000D03*
%TD*%
D11*
%TO.C,D11*%
X233750000Y-121000000D03*
X235800000Y-121000000D03*
%TD*%
D15*
%TO.C,R3*%
X204000000Y-90305000D03*
X206000000Y-90305000D03*
%TD*%
D18*
%TO.C,R25*%
X162500000Y-80000000D03*
X162500000Y-82000000D03*
%TD*%
D15*
%TO.C,R47*%
X232000000Y-117250000D03*
X234000000Y-117250000D03*
%TD*%
D25*
%TO.C,U9*%
X216250000Y-117070000D03*
X216250000Y-118970000D03*
X219250000Y-118020000D03*
%TD*%
D26*
%TO.C,C6*%
X165712500Y-108750000D03*
X167787500Y-108750000D03*
%TD*%
D12*
%TO.C,R35*%
X166000000Y-124725000D03*
X166000000Y-122725000D03*
%TD*%
D15*
%TO.C,R24*%
X227750000Y-127300000D03*
X229750000Y-127300000D03*
%TD*%
D19*
%TO.C,RV4*%
X204500000Y-112780000D03*
X207000000Y-112780000D03*
X209500000Y-112780000D03*
%TD*%
D25*
%TO.C,U28*%
X221475000Y-136550000D03*
X221475000Y-138450000D03*
X224475000Y-137500000D03*
%TD*%
D20*
%TO.C,C16*%
X192000000Y-101575000D03*
X192000000Y-99500000D03*
%TD*%
D16*
%TO.C,U27*%
X184190000Y-123750000D03*
X185460000Y-123750000D03*
X186730000Y-123750000D03*
X188000000Y-123750000D03*
X188000000Y-118800000D03*
X186730000Y-118800000D03*
X185460000Y-118800000D03*
X184190000Y-118800000D03*
%TD*%
D10*
%TO.C,R54*%
X219250000Y-130060000D03*
X217250000Y-130060000D03*
%TD*%
D25*
%TO.C,U5*%
X216250000Y-80100000D03*
X216250000Y-82000000D03*
X219250000Y-81050000D03*
%TD*%
D17*
%TO.C,TP5*%
X162285714Y-71750000D03*
%TD*%
D15*
%TO.C,R12*%
X207750000Y-127310000D03*
X209750000Y-127310000D03*
%TD*%
D11*
%TO.C,D5*%
X213750000Y-121020000D03*
X215800000Y-121020000D03*
%TD*%
D25*
%TO.C,U12*%
X236250000Y-89050000D03*
X236250000Y-90950000D03*
X239250000Y-90000000D03*
%TD*%
D28*
%TO.C,C3*%
X159500000Y-130400000D03*
X159500000Y-132475000D03*
%TD*%
D25*
%TO.C,U24*%
X197827944Y-136527944D03*
X197827944Y-138427944D03*
X200827944Y-137477944D03*
%TD*%
D15*
%TO.C,R13*%
X224000000Y-81250000D03*
X226000000Y-81250000D03*
%TD*%
D29*
%TO.C,U22*%
X192287500Y-75500000D03*
D30*
X198587500Y-77780000D03*
D29*
X192287500Y-80060000D03*
%TD*%
D17*
%TO.C,TP13*%
X152500000Y-71750000D03*
%TD*%
D10*
%TO.C,R60*%
X239225000Y-130050000D03*
X237225000Y-130050000D03*
%TD*%
D25*
%TO.C,U7*%
X215975000Y-98100000D03*
X215975000Y-100000000D03*
X218975000Y-99050000D03*
%TD*%
D26*
%TO.C,C7*%
X165712500Y-101750000D03*
X167787500Y-101750000D03*
%TD*%
D20*
%TO.C,C2*%
X175870000Y-101575000D03*
X175870000Y-99500000D03*
%TD*%
D15*
%TO.C,R22*%
X227750000Y-118250000D03*
X229750000Y-118250000D03*
%TD*%
%TO.C,R2*%
X207750000Y-81300000D03*
X209750000Y-81300000D03*
%TD*%
%TO.C,R39*%
X211725000Y-98300000D03*
X213725000Y-98300000D03*
%TD*%
D10*
%TO.C,R49*%
X219500000Y-84050000D03*
X217500000Y-84050000D03*
%TD*%
D15*
%TO.C,R45*%
X231750000Y-98240000D03*
X233750000Y-98240000D03*
%TD*%
D10*
%TO.C,R37*%
X214000000Y-80300000D03*
X212000000Y-80300000D03*
%TD*%
D11*
%TO.C,D12*%
X233450000Y-130050000D03*
X235500000Y-130050000D03*
%TD*%
D16*
%TO.C,U3*%
X156190000Y-128200000D03*
X157460000Y-128200000D03*
X158730000Y-128200000D03*
X160000000Y-128200000D03*
X161270000Y-128200000D03*
X162540000Y-128200000D03*
X163810000Y-128200000D03*
X163810000Y-123250000D03*
X162540000Y-123250000D03*
X161270000Y-123250000D03*
X160000000Y-123250000D03*
X158730000Y-123250000D03*
X157460000Y-123250000D03*
X156190000Y-123250000D03*
%TD*%
D15*
%TO.C,R21*%
X224000000Y-118250000D03*
X226000000Y-118250000D03*
%TD*%
D17*
%TO.C,TP12*%
X228250000Y-76500000D03*
%TD*%
D16*
%TO.C,U18*%
X191940000Y-123750000D03*
X193210000Y-123750000D03*
X194480000Y-123750000D03*
X195750000Y-123750000D03*
X197020000Y-123750000D03*
X198290000Y-123750000D03*
X199560000Y-123750000D03*
X199560000Y-118800000D03*
X198290000Y-118800000D03*
X197020000Y-118800000D03*
X195750000Y-118800000D03*
X194480000Y-118800000D03*
X193210000Y-118800000D03*
X191940000Y-118800000D03*
%TD*%
D20*
%TO.C,C17*%
X184345000Y-116562500D03*
X184345000Y-114487500D03*
%TD*%
D10*
%TO.C,R59*%
X239525000Y-121000000D03*
X237525000Y-121000000D03*
%TD*%
D11*
%TO.C,D4*%
X213750000Y-112030000D03*
X215800000Y-112030000D03*
%TD*%
D18*
%TO.C,R80*%
X179000000Y-126062500D03*
X179000000Y-128062500D03*
%TD*%
D10*
%TO.C,R43*%
X234000000Y-80250000D03*
X232000000Y-80250000D03*
%TD*%
D31*
%TO.C,D13*%
X169250000Y-136250000D03*
X169250000Y-139050000D03*
%TD*%
D15*
%TO.C,R23*%
X224000000Y-127300000D03*
X226000000Y-127300000D03*
%TD*%
D19*
%TO.C,RV12*%
X224500000Y-130800000D03*
X227000000Y-130800000D03*
X229500000Y-130800000D03*
%TD*%
D25*
%TO.C,U11*%
X236250000Y-80100000D03*
X236250000Y-82000000D03*
X239250000Y-81050000D03*
%TD*%
D15*
%TO.C,R14*%
X227750000Y-81250000D03*
X229750000Y-81250000D03*
%TD*%
%TO.C,R65*%
X165750000Y-117750000D03*
X167750000Y-117750000D03*
%TD*%
D19*
%TO.C,RV11*%
X224500000Y-121750000D03*
X227000000Y-121750000D03*
X229500000Y-121750000D03*
%TD*%
D13*
%TO.C,H1*%
X142600000Y-71400000D03*
X143302944Y-69702944D03*
X143302944Y-73097056D03*
X145000000Y-69000000D03*
D14*
X145000000Y-71400000D03*
D13*
X145000000Y-73800000D03*
X146697056Y-69702944D03*
X146697056Y-73097056D03*
X147400000Y-71400000D03*
%TD*%
D18*
%TO.C,R73*%
X182250000Y-114450000D03*
X182250000Y-116450000D03*
%TD*%
D19*
%TO.C,RV8*%
X224500000Y-93750000D03*
X227000000Y-93750000D03*
X229500000Y-93750000D03*
%TD*%
D17*
%TO.C,TP33*%
X194750000Y-141000000D03*
%TD*%
D10*
%TO.C,R50*%
X219525000Y-93055000D03*
X217525000Y-93055000D03*
%TD*%
D19*
%TO.C,RV6*%
X204500000Y-130810000D03*
X207000000Y-130810000D03*
X209500000Y-130810000D03*
%TD*%
D12*
%TO.C,R36*%
X168000000Y-124725000D03*
X168000000Y-122725000D03*
%TD*%
D15*
%TO.C,R9*%
X203975000Y-118270000D03*
X205975000Y-118270000D03*
%TD*%
%TO.C,R81*%
X217225000Y-136750000D03*
X219225000Y-136750000D03*
%TD*%
%TO.C,R68*%
X165750000Y-96750000D03*
X167750000Y-96750000D03*
%TD*%
D25*
%TO.C,U13*%
X236000000Y-98040000D03*
X236000000Y-99940000D03*
X239000000Y-98990000D03*
%TD*%
D19*
%TO.C,RV10*%
X224500000Y-112765000D03*
X227000000Y-112765000D03*
X229500000Y-112765000D03*
%TD*%
D20*
%TO.C,C9*%
X192000000Y-87062500D03*
X192000000Y-84987500D03*
%TD*%
D15*
%TO.C,R1*%
X204000000Y-81300000D03*
X206000000Y-81300000D03*
%TD*%
D19*
%TO.C,RV1*%
X204500000Y-84800000D03*
X207000000Y-84800000D03*
X209500000Y-84800000D03*
%TD*%
D27*
%TO.C,U1*%
X163750000Y-84300000D03*
X162480000Y-84300000D03*
X161210000Y-84300000D03*
X159940000Y-84300000D03*
X158670000Y-84300000D03*
X157400000Y-84300000D03*
X156130000Y-84300000D03*
X156130000Y-89250000D03*
X157400000Y-89250000D03*
X158670000Y-89250000D03*
X159940000Y-89250000D03*
X161210000Y-89250000D03*
X162480000Y-89250000D03*
X163750000Y-89250000D03*
%TD*%
D16*
%TO.C,U25*%
X171555000Y-123762500D03*
X172825000Y-123762500D03*
X174095000Y-123762500D03*
X175365000Y-123762500D03*
X176635000Y-123762500D03*
X177905000Y-123762500D03*
X179175000Y-123762500D03*
X180445000Y-123762500D03*
X180445000Y-118812500D03*
X179175000Y-118812500D03*
X177905000Y-118812500D03*
X176635000Y-118812500D03*
X175365000Y-118812500D03*
X174095000Y-118812500D03*
X172825000Y-118812500D03*
X171555000Y-118812500D03*
%TD*%
D18*
%TO.C,R71*%
X183370000Y-99500000D03*
X183370000Y-101500000D03*
%TD*%
%TO.C,R27*%
X168000000Y-87750000D03*
X168000000Y-89750000D03*
%TD*%
D15*
%TO.C,R17*%
X224000000Y-99240000D03*
X226000000Y-99240000D03*
%TD*%
D16*
%TO.C,U21*%
X171440000Y-94212500D03*
X172710000Y-94212500D03*
X173980000Y-94212500D03*
X175250000Y-94212500D03*
X176520000Y-94212500D03*
X177790000Y-94212500D03*
X179060000Y-94212500D03*
X179060000Y-89262500D03*
X177790000Y-89262500D03*
X176520000Y-89262500D03*
X175250000Y-89262500D03*
X173980000Y-89262500D03*
X172710000Y-89262500D03*
X171440000Y-89262500D03*
%TD*%
D17*
%TO.C,TP8*%
X186750000Y-71750000D03*
%TD*%
D19*
%TO.C,RV5*%
X204475000Y-121770000D03*
X206975000Y-121770000D03*
X209475000Y-121770000D03*
%TD*%
D15*
%TO.C,R44*%
X232000000Y-89250000D03*
X234000000Y-89250000D03*
%TD*%
D19*
%TO.C,RV9*%
X224500000Y-102740000D03*
X227000000Y-102740000D03*
X229500000Y-102740000D03*
%TD*%
D15*
%TO.C,R5*%
X204000000Y-99300000D03*
X206000000Y-99300000D03*
%TD*%
D17*
%TO.C,TP14*%
X172071429Y-71750000D03*
%TD*%
%TO.C,TP9*%
X221333333Y-71750000D03*
%TD*%
D12*
%TO.C,R34*%
X155440000Y-132500000D03*
X155440000Y-130500000D03*
%TD*%
D10*
%TO.C,R57*%
X239275000Y-101990000D03*
X237275000Y-101990000D03*
%TD*%
D20*
%TO.C,C12*%
X181750000Y-87025000D03*
X181750000Y-84950000D03*
%TD*%
D18*
%TO.C,R30*%
X179930000Y-99475000D03*
X179930000Y-101475000D03*
%TD*%
D26*
%TO.C,C5*%
X165712500Y-115750000D03*
X167787500Y-115750000D03*
%TD*%
D10*
%TO.C,R83*%
X232475000Y-136750000D03*
X230475000Y-136750000D03*
%TD*%
D20*
%TO.C,C4*%
X192500000Y-116537500D03*
X192500000Y-114462500D03*
%TD*%
D25*
%TO.C,U14*%
X236250000Y-108065000D03*
X236250000Y-109965000D03*
X239250000Y-109015000D03*
%TD*%
D12*
%TO.C,R79*%
X186345000Y-116487500D03*
X186345000Y-114487500D03*
%TD*%
D11*
%TO.C,D2*%
X213750000Y-93055000D03*
X215800000Y-93055000D03*
%TD*%
D15*
%TO.C,R20*%
X227750000Y-109265000D03*
X229750000Y-109265000D03*
%TD*%
D10*
%TO.C,R77*%
X214750000Y-136750000D03*
X212750000Y-136750000D03*
%TD*%
D12*
%TO.C,R75*%
X182750000Y-127950000D03*
X182750000Y-125950000D03*
%TD*%
D17*
%TO.C,TP16*%
X207500000Y-76500000D03*
%TD*%
M02*
