M48
; DRILL file {KiCad 9.0.3} date 2026-01-27T01:38:27+0700
; FORMAT={-:-/ absolute / metric / decimal}
; #@! TF.CreationDate,2026-01-27T01:38:27+07:00
; #@! TF.GenerationSoftware,Kicad,Pcbnew,9.0.3
; #@! TF.FileFunction,Plated,1,4,PTH
FMAT,2
METRIC
; #@! TA.AperFunction,Plated,PTH,ViaDrill
T1C0.300
; #@! TA.AperFunction,Plated,PTH,ComponentDrill
T2C0.500
; #@! TA.AperFunction,Plated,PTH,ComponentDrill
T3C0.900
; #@! TA.AperFunction,Plated,PTH,ComponentDrill
T4C1.200
; #@! TA.AperFunction,Plated,PTH,ComponentDrill
T5C1.500
; #@! TA.AperFunction,Plated,PTH,ComponentDrill
T6C3.200
%
G90
G05
T1
X145.7Y-84.5
X145.75Y-80.25
X146.0Y-132.25
X148.0Y-131.5
X148.25Y-84.5
X149.948Y-73.393
X152.5Y-73.393
X154.0Y-80.0
X154.75Y-74.5
X156.13Y-82.75
X156.13Y-89.25
X156.19Y-125.0
X157.4Y-73.393
X157.4Y-90.9
X157.44Y-133.69
X158.0Y-85.75
X158.67Y-90.9
X158.75Y-80.0
X158.75Y-125.0
X159.5Y-71.75
X159.5Y-83.25
X159.5Y-133.95
X160.0Y-123.25
X160.0Y-125.5
X160.0Y-129.0
X160.95Y-87.25
X161.21Y-84.3
X161.27Y-123.25
X162.48Y-82.5
X162.54Y-123.25
X162.54Y-128.2
X164.0Y-118.0
X164.5Y-125.75
X165.2Y-84.3
X165.262Y-121.987
X165.713Y-100.0
X166.0Y-126.0
X167.0Y-77.0
X167.0Y-77.75
X167.0Y-78.5
X167.55Y-98.35
X167.75Y-77.0
X167.75Y-77.75
X167.75Y-78.5
X167.8Y-100.3
X168.5Y-77.0
X168.5Y-77.75
X168.5Y-78.5
X168.75Y-123.5
X169.0Y-89.75
X169.2Y-103.75
X169.3Y-108.75
X169.3Y-115.75
X169.4Y-88.75
X169.95Y-128.05
X169.95Y-128.8
X169.95Y-129.55
X170.7Y-128.05
X170.7Y-128.8
X170.7Y-129.55
X170.75Y-81.25
X171.45Y-128.05
X171.45Y-128.8
X171.45Y-129.55
X171.5Y-81.25
X171.5Y-106.25
X171.5Y-110.25
X171.5Y-111.5
X171.5Y-126.25
X171.555Y-120.195
X171.7Y-113.0
X172.0Y-102.25
X172.132Y-91.868
X172.25Y-81.25
X172.25Y-98.25
X172.5Y-95.75
X172.65Y-91.15
X172.75Y-126.25
X174.095Y-91.75
X174.095Y-122.0
X174.1Y-90.85
X175.0Y-91.25
X175.4Y-122.05
X175.75Y-95.94
X175.9Y-111.2
X175.9Y-111.95
X175.9Y-112.7
X176.0Y-107.0
X176.52Y-90.73
X176.65Y-111.2
X176.65Y-111.95
X176.65Y-112.7
X176.65Y-117.0
X176.65Y-122.05
X176.964Y-73.4
X177.4Y-111.2
X177.4Y-111.95
X177.5Y-77.0
X177.5Y-77.75
X177.5Y-78.5
X178.25Y-77.0
X178.25Y-77.75
X178.25Y-78.5
X179.0Y-77.0
X179.0Y-77.75
X179.0Y-78.5
X179.06Y-94.212
X179.33Y-73.42
X179.93Y-98.32
X180.0Y-84.75
X180.25Y-95.0
X180.25Y-107.75
X180.45Y-121.9
X181.15Y-127.95
X181.69Y-90.69
X181.75Y-98.5
X183.37Y-102.87
X183.37Y-110.38
X183.4Y-84.95
X184.19Y-118.75
X184.19Y-122.19
X184.35Y-113.05
X185.0Y-96.5
X185.25Y-137.0
X185.25Y-137.75
X185.25Y-138.5
X185.25Y-139.25
X185.46Y-120.25
X185.5Y-78.5
X185.5Y-91.0
X185.5Y-92.75
X186.0Y-137.0
X186.0Y-137.75
X186.0Y-138.5
X186.0Y-139.25
X186.25Y-77.75
X186.25Y-78.5
X186.25Y-84.25
X186.7Y-91.0
X186.75Y-73.4
X186.75Y-122.25
X186.75Y-137.0
X186.75Y-137.75
X186.75Y-138.5
X186.75Y-139.25
X186.75Y-140.0
X186.75Y-140.75
X186.75Y-141.5
X186.75Y-142.25
X186.77Y-88.0
X186.77Y-94.25
X187.0Y-77.0
X187.0Y-77.75
X187.0Y-78.5
X187.5Y-137.0
X187.5Y-137.75
X187.5Y-138.5
X187.5Y-139.25
X187.5Y-140.0
X187.5Y-140.75
X187.5Y-141.5
X187.5Y-142.25
X187.594Y-103.906
X187.75Y-77.0
X187.75Y-77.75
X187.75Y-78.5
X188.0Y-121.85
X188.04Y-95.96
X188.25Y-137.0
X188.25Y-137.75
X188.25Y-138.5
X188.25Y-139.25
X188.25Y-140.0
X188.25Y-140.75
X188.25Y-141.5
X188.25Y-142.25
X188.35Y-113.0
X188.5Y-77.0
X188.5Y-77.75
X188.5Y-78.5
X188.5Y-108.0
X189.0Y-137.0
X189.0Y-137.75
X189.0Y-138.5
X189.0Y-139.25
X189.0Y-140.0
X189.0Y-140.75
X189.0Y-141.5
X189.25Y-77.0
X189.25Y-77.75
X189.25Y-78.5
X189.35Y-95.95
X189.5Y-91.0
X189.75Y-113.25
X189.75Y-137.0
X189.75Y-137.75
X189.75Y-138.5
X189.75Y-139.25
X189.75Y-140.0
X189.75Y-140.75
X190.0Y-77.0
X190.0Y-77.75
X190.0Y-78.5
X190.3Y-85.0
X190.5Y-94.5
X190.5Y-137.0
X190.5Y-137.75
X190.5Y-138.5
X190.5Y-139.25
X190.5Y-140.0
X190.75Y-77.0
X190.75Y-77.75
X190.75Y-78.5
X190.75Y-122.56
X190.75Y-126.5
X190.75Y-127.2
X190.75Y-127.95
X191.25Y-137.0
X191.25Y-137.75
X191.25Y-138.5
X191.25Y-139.25
X191.5Y-77.0
X191.5Y-77.75
X191.5Y-78.5
X191.5Y-126.5
X191.5Y-127.2
X191.5Y-127.95
X191.94Y-110.25
X192.25Y-77.0
X192.25Y-77.75
X192.25Y-78.5
X192.25Y-127.2
X192.25Y-127.95
X192.5Y-90.75
X193.0Y-77.0
X193.0Y-77.75
X193.0Y-78.5
X193.21Y-92.75
X193.45Y-101.8
X193.6Y-99.5
X193.725Y-135.25
X193.75Y-77.0
X193.75Y-77.75
X193.75Y-78.5
X193.85Y-87.15
X193.85Y-120.65
X194.05Y-114.45
X194.4Y-116.8
X194.5Y-74.75
X194.5Y-75.5
X194.5Y-76.25
X194.5Y-77.0
X194.5Y-77.75
X194.5Y-78.5
X194.5Y-79.25
X194.5Y-80.0
X194.5Y-80.75
X195.25Y-74.0
X195.25Y-74.75
X195.25Y-75.5
X195.25Y-76.25
X195.25Y-77.0
X195.25Y-77.75
X195.25Y-78.5
X195.25Y-79.25
X195.25Y-80.0
X195.25Y-80.75
X195.25Y-81.5
X195.75Y-133.25
X195.8Y-138.45
X195.9Y-101.85
X196.0Y-73.25
X196.0Y-74.0
X196.0Y-74.75
X196.0Y-75.5
X196.0Y-76.25
X196.0Y-77.0
X196.0Y-77.75
X196.0Y-78.5
X196.0Y-79.25
X196.0Y-80.0
X196.0Y-80.75
X196.0Y-81.5
X196.75Y-73.25
X196.75Y-74.0
X196.75Y-74.75
X196.75Y-75.5
X196.75Y-76.25
X196.75Y-77.0
X196.75Y-77.75
X196.75Y-78.5
X196.75Y-79.25
X196.75Y-80.0
X196.75Y-80.75
X196.75Y-81.5
X197.0Y-120.25
X197.02Y-95.75
X197.5Y-73.25
X197.5Y-74.0
X197.5Y-74.75
X197.5Y-75.5
X197.5Y-76.25
X197.5Y-77.0
X197.5Y-77.75
X197.5Y-78.5
X197.5Y-79.25
X197.5Y-80.0
X197.5Y-80.75
X197.5Y-81.5
X197.65Y-87.15
X198.25Y-73.25
X198.25Y-74.0
X198.25Y-74.75
X198.25Y-75.5
X198.25Y-76.25
X198.25Y-77.0
X198.25Y-77.75
X198.25Y-78.5
X198.25Y-79.25
X198.25Y-80.0
X198.25Y-80.75
X198.25Y-81.5
X198.25Y-121.0
X198.3Y-106.25
X198.3Y-117.0
X198.55Y-101.9
X199.0Y-73.25
X199.0Y-74.0
X199.0Y-74.75
X199.0Y-75.5
X199.0Y-76.25
X199.0Y-77.0
X199.0Y-77.75
X199.0Y-78.5
X199.0Y-79.25
X199.0Y-80.0
X199.0Y-80.75
X199.0Y-81.5
X199.0Y-99.75
X199.0Y-100.5
X199.0Y-101.25
X199.55Y-125.55
X199.75Y-73.25
X199.75Y-74.0
X199.75Y-74.75
X199.75Y-75.5
X199.75Y-76.25
X199.75Y-77.0
X199.75Y-77.75
X199.75Y-78.5
X199.75Y-79.25
X199.75Y-80.0
X199.75Y-80.75
X199.75Y-81.5
X200.5Y-74.0
X200.5Y-74.75
X200.5Y-75.5
X200.5Y-76.25
X200.5Y-77.0
X200.5Y-77.75
X200.5Y-78.5
X200.5Y-79.25
X200.5Y-80.0
X200.5Y-80.75
X200.5Y-81.5
X200.55Y-108.2
X201.25Y-74.75
X201.25Y-75.5
X201.25Y-76.25
X201.25Y-77.0
X201.25Y-77.75
X201.25Y-78.5
X201.25Y-79.25
X201.25Y-80.0
X201.25Y-80.75
X201.25Y-81.5
X201.25Y-94.0
X202.0Y-75.5
X202.0Y-76.25
X202.0Y-77.0
X202.0Y-77.75
X202.0Y-78.5
X202.0Y-79.25
X202.0Y-80.0
X202.0Y-80.75
X202.0Y-81.5
X202.0Y-104.25
X202.75Y-76.25
X202.75Y-77.0
X202.75Y-77.75
X202.75Y-78.5
X202.75Y-79.25
X202.75Y-80.0
X202.75Y-80.75
X202.75Y-81.5
X203.5Y-78.5
X203.5Y-79.25
X203.75Y-139.85
X204.25Y-78.5
X204.25Y-79.25
X204.75Y-71.75
X204.75Y-76.5
X205.0Y-78.5
X205.0Y-79.25
X205.75Y-78.5
X205.75Y-79.25
X206.0Y-89.0
X206.0Y-126.25
X206.5Y-78.5
X206.5Y-79.25
X207.25Y-78.5
X207.25Y-79.25
X208.0Y-78.5
X208.0Y-79.25
X208.75Y-78.5
X208.75Y-79.25
X209.5Y-78.5
X209.5Y-79.25
X209.75Y-116.6
X210.25Y-78.5
X210.25Y-79.25
X211.725Y-99.475
X211.725Y-126.31
X212.0Y-81.5
X212.0Y-90.5
X212.0Y-116.0
X214.35Y-119.0
X215.5Y-106.75
X215.75Y-105.0
X217.0Y-71.75
X217.225Y-135.5
X219.5Y-138.45
X220.875Y-104.625
X221.333Y-73.25
X221.5Y-123.5
X224.5Y-74.5
X230.75Y-97.25
X232.0Y-81.25
X232.0Y-89.25
X232.0Y-116.0
X234.25Y-124.5
X234.5Y-115.5
X235.0Y-106.25
X237.0Y-78.75
X237.75Y-78.0
X238.484Y-77.266
T2
X142.6Y-71.4
X142.6Y-141.0
X143.303Y-69.703
X143.303Y-73.097
X143.303Y-139.303
X143.303Y-142.697
X145.0Y-69.0
X145.0Y-73.8
X145.0Y-138.6
X145.0Y-143.4
X146.697Y-69.703
X146.697Y-73.097
X146.697Y-139.303
X146.697Y-142.697
X147.4Y-71.4
X147.4Y-141.0
X234.95Y-71.4
X234.95Y-141.0
X235.653Y-69.703
X235.653Y-73.097
X235.653Y-139.303
X235.653Y-142.697
X237.35Y-69.0
X237.35Y-73.8
X237.35Y-138.6
X237.35Y-143.4
X239.047Y-69.703
X239.047Y-73.097
X239.047Y-139.303
X239.047Y-142.697
X239.75Y-71.4
X239.75Y-141.0
T3
X204.475Y-121.77
X204.5Y-84.8
X204.5Y-93.805
X204.5Y-102.8
X204.5Y-112.78
X204.5Y-130.81
X206.975Y-121.77
X207.0Y-84.8
X207.0Y-93.805
X207.0Y-102.8
X207.0Y-112.78
X207.0Y-130.81
X209.475Y-121.77
X209.5Y-84.8
X209.5Y-93.805
X209.5Y-102.8
X209.5Y-112.78
X209.5Y-130.81
X224.5Y-84.75
X224.5Y-93.75
X224.5Y-102.74
X224.5Y-112.765
X224.5Y-121.75
X224.5Y-130.8
X227.0Y-84.75
X227.0Y-93.75
X227.0Y-102.74
X227.0Y-112.765
X227.0Y-121.75
X227.0Y-130.8
X229.5Y-84.75
X229.5Y-93.75
X229.5Y-102.74
X229.5Y-112.765
X229.5Y-121.75
X229.5Y-130.8
T4
X151.65Y-95.77
X151.65Y-99.96
X151.65Y-104.15
X151.65Y-108.35
X151.65Y-112.54
X151.65Y-116.73
X158.0Y-95.77
X158.0Y-99.96
X158.0Y-104.15
X158.0Y-108.35
X158.0Y-112.54
X158.0Y-116.73
T5
X166.5Y-133.5
X166.5Y-141.5
X172.8Y-133.5
X172.8Y-141.5
X177.45Y-133.5
X177.45Y-141.5
T6
X145.0Y-71.4
X145.0Y-141.0
X237.35Y-71.4
X237.35Y-141.0
M30
